# xmcd
# Track frame offsets:
# 150
# 15382
# 34488
# 48848
# 67851
# 88431
# 105217
# 117414
# 131459
# 144064
# 162032
# 178037
# 188314
#
# Disc length: 2713 seconds
# Revision: 0
# Processed by: cddbd v1.4PL0 Copyright (c) Steve Scherf et al.
# Submitted via: VisiTrax 2.9.5.180 - For more info visit www.synapsa.com
#
DISCID=990a970d
DTITLE=Wade Vinvent Root - Our bed of roses
DYEAR=1900
DGENRE=
TTITLE0=She don't know what it's like
TTITLE1=Our bed of roses
TTITLE2=Mamas long leggin
TTITLE3=If you think your lonely
TTITLE4=Somewhere under the rainbow
TTITLE5=That makes one of us
TTITLE6=You mean the world to me
TTITLE7=Leave me a picture of ou
TTITLE8=Give it back
TTITLE9=Little bits and pieces
TTITLE10=Sure had my heart set on you
TTITLE11=A little bit of love
TTITLE12=It ain't over here
EXTD=
EXTT0=
EXTT1=
EXTT2=
EXTT3=
EXTT4=
EXTT5=
EXTT6=
EXTT7=
EXTT8=
EXTT9=
EXTT10=
EXTT11=
EXTT12=
PLAYORDER=
